<?xml version="1.0" encoding="utf-8"?>
<!-- Generator: Adobe Illustrator 27.4.0, SVG Export Plug-In . SVG Version: 6.00 Build 0)  -->
<svg version="1.1" id="Calque_1" xmlns="http://www.w3.org/2000/svg" xmlns:xlink="http://www.w3.org/1999/xlink" x="0px" y="0px"
	 viewBox="0 0 323.7 139.5" style="enable-background:new 0 0 323.7 139.5;" xml:space="preserve">
<style type="text/css">
	.st0{fill:#89704D;}
	.st1{fill:#B59862;}
</style>
<g>
	<g>
		<polygon class="st0" points="79.5,0 79.5,129.4 79.5,139.5 101.4,139.5 101.4,15 		"/>
		<path class="st1" d="M0,0v35.2v94.2v10.1h79.5v-10.1V0H0z M47.1,12.1h23.1v23.1H47.1V12.1z M47.1,43.5h23.1v23.1H47.1V43.5z
			 M47.1,74.9h23.1V98H47.1V74.9z M11.7,12.1h23.1v23.1H11.7V12.1z M11.7,43.5h23.1v23.1H11.7V43.5z M11.7,74.9h23.1V98H11.7V74.9z"
			/>
		<rect x="11.7" y="12.1" width="23.1" height="23.1"/>
		<rect x="47.1" y="12.1" width="23.1" height="23.1"/>
		<rect x="11.7" y="43.5" width="23.1" height="23.1"/>
		<rect x="47.1" y="43.5" width="23.1" height="23.1"/>
		<rect x="11.7" y="74.9" width="23.1" height="23.1"/>
		<rect x="47.1" y="74.9" width="23.1" height="23.1"/>
		<polygon points="47,110.6 47,110.6 29.2,110.6 29.2,139.5 32.5,139.5 47,139.5 50.3,139.5 50.3,110.6 		"/>
	</g>
	<g>
		<path d="M118.3,54.4c-2.4-1.5-4.2-3.5-5.5-6.1c-1.2-2.6-1.9-5.5-1.9-8.7c0-3.7,0.7-6.9,2.2-9.6c1.4-2.7,3.5-4.7,6.1-6
			c2.6-1.4,5.7-2,9.2-2c3.3,0,7,0.5,11.1,1.4l-0.5,8.4h-4.6l-1.2-5.8c-0.3-0.3-0.9-0.6-1.7-0.8c-0.8-0.3-1.9-0.4-3.3-0.4
			c-3,0-5.3,1.2-7,3.6c-1.7,2.4-2.5,5.9-2.5,10.4c0,4.4,0.7,8,2.2,10.8c1.5,2.7,3.7,4.1,6.6,4.1c1.2,0,2.3-0.2,3.4-0.5
			c1.1-0.3,1.9-0.7,2.4-1.2v-9.8l-4.8-0.5v-3h13.8v3l-2.4,0.4v12c-0.6,0-1.8,0.3-3.4,0.8c-1.9,0.5-3.6,0.9-5,1.2
			c-1.4,0.3-2.9,0.4-4.6,0.4C123.6,56.6,120.7,55.9,118.3,54.4z"/>
		<path d="M155.5,22.2h6.9L173,52.9l2.6,0.5v2.7h-13.4v-2.7l3.4-0.5l-1.8-5.9h-11.7l-1.8,5.9l3.7,0.4v2.7h-11.6l0-2.7l2.7-0.5
			L155.5,22.2z M158.7,29.9l-0.8-3.5l-0.9,3.6l-4,13.9h10L158.7,29.9z"/>
		<path d="M180.4,25.8l-3.5-0.6v-2.8h14.5v2.8l-4.4,0.6v27.1l9.7-0.4l2.9-8.5l3.7,0.5l-1.4,11.6h-25.1v-2.7l3.6-0.5V25.8z"/>
		<path d="M209.3,25.8l-3.6-0.6v-2.8h24.2l0.6,7.6h-3.2l-1.5-4.5l-9.8-0.4v12.2l6.3-0.1l0.7-3.7h2.9v11H223l-0.7-3.9l-6.3-0.1v12.8
			l11-0.5l2.6-5.8l3.4,1l-1.2,8.3h-26.1v-2.7l3.6-0.5V25.8z"/>
		<path d="M235.4,53.4l3.6-0.5V25.8l-3.4-0.6v-2.8h6.6c0.6,0,1.2,0,1.9,0c0.7,0,1.2-0.1,1.6-0.1c1.6-0.1,2.9-0.2,3.9-0.2
			c3.1,0,5.6,0.3,7.5,1c1.9,0.6,3.2,1.6,4.1,2.9c0.8,1.3,1.3,3,1.3,5.1c0,2.1-0.6,4-1.7,5.8c-1.1,1.8-2.7,3-4.9,3.7
			c1.2,0.5,2.3,1.5,3.2,2.8c0.9,1.4,1.9,3.1,3,5.3c0.8,1.5,1.3,2.5,1.7,3.2c0.4,0.6,0.8,1,1.2,1.1l1.5,0.5v2.7h-7.7
			c-0.5,0-1-0.5-1.5-1.5c-0.5-1-1.2-2.5-2.1-4.7c-1-2.5-1.9-4.4-2.6-5.8c-0.7-1.4-1.5-2.3-2.3-2.6h-4.7v11.3l4.2,0.5v2.7h-14.4V53.4
			z M253.9,36.9c1-1.2,1.5-3.1,1.5-5.6c0-2.2-0.5-3.8-1.4-4.9c-1-1.1-2.6-1.6-4.9-1.6c-0.8,0-1.6,0-2.2,0.1c-0.6,0.1-1,0.1-1.2,0.1
			v13.6c0.4,0.1,1.2,0.1,2.6,0.1h1.5C251.6,38.8,252.9,38.2,253.9,36.9z"/>
		<path d="M272.3,25.8l-3.9-0.6v-2.8H283v2.8l-4,0.6v27.1l4,0.5v2.7h-14.5v-2.7l3.9-0.5V25.8z"/>
		<path d="M290.4,25.8l-3.6-0.6v-2.8h24.2l0.6,7.6h-3.2l-1.5-4.5l-9.8-0.4v12.2l6.3-0.1l0.7-3.7h2.9v11h-2.9l-0.7-3.9l-6.3-0.1v12.8
			l11-0.5l2.6-5.8l3.4,1l-1.2,8.3h-26.1v-2.7l3.6-0.5V25.8z"/>
		<path d="M116.6,107.4c-2.2-2.3-3.4-5.9-3.4-10.8V80.2l-3-0.6v-2.8H124v2.8l-3.9,0.6v16.9c0,7.2,2.6,10.8,7.7,10.8
			c2.5,0,4.4-0.9,5.6-2.8c1.2-1.9,1.8-4.5,1.8-7.8V80.3l-3.9-0.6v-2.8h11.3v2.8l-3.1,0.6V97c0,4.7-1.1,8.2-3.4,10.5
			c-2.3,2.3-5.4,3.4-9.2,3.4C122.3,110.9,118.9,109.7,116.6,107.4z"/>
		<path d="M144.9,107.8l3.6-0.5V80.2l-3.4-0.6v-2.8h6.6c0.6,0,1.2,0,1.9,0c0.7,0,1.2-0.1,1.6-0.1c1.6-0.1,2.9-0.2,3.9-0.2
			c3.1,0,5.6,0.3,7.5,1c1.9,0.6,3.2,1.6,4.1,2.9c0.8,1.3,1.3,3,1.3,5.1c0,2.1-0.6,4-1.7,5.8c-1.1,1.8-2.7,3-4.9,3.7
			c1.2,0.5,2.3,1.5,3.2,2.8c0.9,1.4,1.9,3.1,3,5.3c0.8,1.5,1.3,2.5,1.7,3.2c0.4,0.6,0.8,1,1.2,1.1l1.5,0.5v2.7h-7.7
			c-0.5,0-1-0.5-1.5-1.5c-0.5-1-1.2-2.5-2.1-4.7c-1-2.5-1.9-4.4-2.6-5.8c-0.7-1.4-1.5-2.3-2.3-2.6h-4.7v11.3l4.2,0.5v2.7h-14.4
			V107.8z M163.4,91.4c1-1.2,1.5-3.1,1.5-5.6c0-2.2-0.5-3.8-1.4-4.9c-1-1.1-2.6-1.6-4.9-1.6c-0.8,0-1.6,0-2.2,0.1
			c-0.6,0.1-1,0.1-1.2,0.1v13.6c0.4,0.1,1.2,0.1,2.6,0.1h1.5C161,93.2,162.4,92.6,163.4,91.4z"/>
		<path d="M181.2,80.2l-3.5-0.6v-2.8h6.8c1,0,2.4-0.1,4-0.2c0.4,0,0.9-0.1,1.4-0.1c0.5,0,1.2,0,1.9,0c4.6,0,7.8,0.6,9.6,1.9
			c1.8,1.3,2.7,3.2,2.7,5.7c0,2.2-0.7,4.1-2,5.6c-1.3,1.5-3.1,2.4-5.3,2.7c3,0,5.3,0.6,7.1,2c1.7,1.4,2.6,3.3,2.6,5.8
			c0,3.1-1.1,5.7-3.3,7.6c-2.2,1.9-5.9,2.9-11.1,2.9c-1.4,0-2.6,0-3.8-0.1c-0.3,0-0.8,0-1.5-0.1c-0.7,0-1.5-0.1-2.2-0.1h-6.8v-2.7
			l3.6-0.5V80.2z M189.8,91.6h2.1c1.8,0,3.2-0.6,4.1-1.7c0.9-1.1,1.4-2.8,1.4-4.9c0-2-0.5-3.4-1.4-4.4c-0.9-0.9-2.5-1.4-4.7-1.4
			c-0.6,0-1.8,0.1-3.6,0.2v12.1C188.1,91.5,188.8,91.6,189.8,91.6z M191.7,107.9c2.6,0,4.4-0.6,5.6-1.8c1.1-1.2,1.7-3,1.7-5.3
			c0-2.2-0.5-3.8-1.6-4.7c-1-1-2.7-1.4-5-1.4c-2.5,0-4.1,0-4.8,0.1v12.7C188.4,107.8,189.8,107.9,191.7,107.9z"/>
		<path d="M220.2,76.6h6.9l10.5,30.7l2.6,0.5v2.7h-13.4v-2.7l3.4-0.5l-1.8-5.9h-11.7l-1.8,5.9l3.7,0.4v2.7h-11.6l0-2.7l2.7-0.5
			L220.2,76.6z M223.3,84.3l-0.8-3.5l-0.9,3.6l-4,13.9h10L223.3,84.3z"/>
		<path d="M245.6,80.2l-3.9-0.6v-2.8h14.5v2.8l-4,0.6v27.1l4,0.5v2.7h-14.5v-2.7l3.9-0.5V80.2z"/>
		<path d="M263.7,80.2l-3.6-0.6v-2.8h10.3l13.5,20.4l2.5,5.2V80.2l-3.9-0.6v-2.8h11.2v2.8l-3.5,0.6v30.3h-5.5l-14.1-21.5l-3.2-6
			v24.3l4.6,0.5v2.7h-12v-2.7l3.6-0.5V80.2z"/>
		<path d="M300.1,80.2l-3.6-0.6v-2.8h24.2l0.6,7.6H318l-1.5-4.5l-9.8-0.4v12.2l6.3-0.1l0.7-3.7h2.9v11h-2.9L313,95l-6.3-0.1v12.8
			l11-0.5l2.6-5.8l3.4,1l-1.2,8.3h-26.1v-2.7l3.6-0.5V80.2z"/>
	</g>
</g>
</svg>
