<?xml version="1.0" encoding="utf-8"?>
<!-- Generator: Adobe Illustrator 27.4.0, SVG Export Plug-In . SVG Version: 6.00 Build 0)  -->
<svg version="1.1" id="Calque_1" xmlns="http://www.w3.org/2000/svg" xmlns:xlink="http://www.w3.org/1999/xlink" x="0px" y="0px"
	 viewBox="0 0 101.4 139.5" style="enable-background:new 0 0 101.4 139.5;" xml:space="preserve">
<style type="text/css">
	.st0{fill:#89704D;}
	.st1{fill:#B59862;}
</style>
<g>
	<polygon class="st0" points="79.5,0 79.5,129.4 79.5,139.5 101.4,139.5 101.4,15 	"/>
	<path class="st1" d="M0,0v35.2v94.2v10.1h79.5v-10.1V0H0z M47.1,12.1h23.1v23.1H47.1V12.1z M47.1,43.5h23.1v23.1H47.1V43.5z
		 M47.1,74.9h23.1V98H47.1V74.9z M11.7,12.1h23.1v23.1H11.7V12.1z M11.7,43.5h23.1v23.1H11.7V43.5z M11.7,74.9h23.1V98H11.7V74.9z"
		/>
	<rect x="11.7" y="12.1" width="23.1" height="23.1"/>
	<rect x="47.1" y="12.1" width="23.1" height="23.1"/>
	<rect x="11.7" y="43.5" width="23.1" height="23.1"/>
	<rect x="47.1" y="43.5" width="23.1" height="23.1"/>
	<rect x="11.7" y="74.9" width="23.1" height="23.1"/>
	<rect x="47.1" y="74.9" width="23.1" height="23.1"/>
	<polygon points="47,110.6 47,110.6 29.2,110.6 29.2,139.5 32.5,139.5 47,139.5 50.3,139.5 50.3,110.6 	"/>
</g>
</svg>
